; ===========================================================================
; Song name: Skull Man
;
; File converted by FroggestSpirit's Midi to GSC ASM converter 1.barelyabove0
; ===========================================================================
Music_TitleScreen:
	channel_count 4
	channel 1, Music_TitleScreen_Ch1
	channel 2, Music_TitleScreen_Ch2
	channel 3, Music_TitleScreen_Ch3
	channel 4, Music_TitleScreen_Ch4

Music_TitleScreen_Ch1:
		tempo $D7
		volume 7, 7
		duty_cycle 1
		note_type 12, 7, 7 ; Expression must be 8-bit
Music_TitleScreen_Ch1_Bar1:
		rest 2
		duty_cycle 0
		octave 3
		note B_, 2
		note B_, 1
		note A#, 2
		note G#, 2
		note B_, 2
		note B_, 1
		note A#, 2
		note G#, 4
Music_TitleScreen_Ch1_Bar2:
		note A#, 2
		note A#, 1
		note G#, 2
		note F#, 2
		note A#, 3
		note B_, 2
		note A#, 1
		note B_, 3
Music_TitleScreen_Ch1_Bar3:
		note B_, 2
		note B_, 1
		note A#, 2
		note G#, 2
		note B_, 2
		note B_, 1
		note A#, 2
		note G#, 4
Music_TitleScreen_Ch1_Bar4:
		note A#, 2
		note A#, 1
		note G#, 2
		note F#, 2
		note A#, 2
		note A#, 1
		note B_, 2
		note A#, 1
		note G#, 6
Music_TitleScreen_Ch1_Bar5:
		note F#, 1
		note G_, 1
		note G#, 3
		octave 4
		note D#, 8
Music_TitleScreen_Ch1_Bar6:
		note D#, 2
		note C#, 1
		octave 3
		note B_, 2
		note G#, 2
		note G#, 2
		note G#, 1
		note A#, 1
		note F#, 2
		note G#, 3
Music_TitleScreen_Ch1_Bar7:
		octave 4
		note D#, 2
		note C#, 1
		octave 3
		note B_, 2
		octave 4
		note E_, 2
		note D#, 2
		note C#, 2
		octave 3
		note B_, 2
		note A#, 2
Music_TitleScreen_Ch1_Bar8:
		note G#, 8
		note G#, 1
		note A#, 1
		note B_, 1
		note A#, 1
		note F#, 2
		note G#, 3
Music_TitleScreen_Ch1_Bar9:
		note B_, 2
		note B_, 1
		note A#, 2
		note G#, 2
		note B_, 2
		note B_, 1
		note A#, 2
		note G#, 4
Music_TitleScreen_Ch1_Bar10:
		note A#, 2
		note A#, 1
		note G#, 2
		note F#, 2
		note A#, 3
		note B_, 2
		note A#, 1
		note B_, 2
Music_TitleScreen_Ch1_Bar11:
		octave 2
		note F#, 1
		note G_, 1
		note G#, 1
		note B_, 1
		octave 3
		note D#, 2
		octave 4
		note C#, 5
		note C#, 1
		octave 3
		note B_, 1
		note A#, 1
		note F#, 6
Music_TitleScreen_Ch1_Bar12:
		octave 4
		note C#, 2
		note D#, 5
		note D#, 1
		note C#, 1
		octave 3
		note B_, 1
		octave 4
		note D#, 9
Music_TitleScreen_Ch1_Bar13:
		note F_, 4
		note F_, 1
		note D#, 1
		note D_, 1
		octave 3
		note A#, 7
Music_TitleScreen_Ch1_Bar14:
		octave 4
		note F_, 2
		note F#, 4
		note F#, 1
		note F_, 1
		note F#, 1
		note D#, 6
Music_TitleScreen_Ch1_Bar15:
		octave 3
		note D#, 1
		note F_, 1
		note F#, 1
		note F#, 3
		octave 2
		note B_, 3
		octave 3
		note F#, 10
Music_TitleScreen_Ch1_Bar16:
		note G#, 3
		note C#, 3
		note G#, 11
Music_TitleScreen_Ch1_Bar17:
		note G_, 1
		note G#, 1
		note A#, 2
		note G_, 1
		note G#, 1
		note A#, 2
Music_TitleScreen_Ch1_Bar18:
		note G_, 1
		note G#, 1
		note A#, 2
		octave 4
		note C#, 1
		note C#, 4
		octave 3
		note B_, 2
		note B_, 1
		note A#, 2
		note G#, 2
Music_TitleScreen_Ch1_Bar19:
		note B_, 2
		note B_, 1
		note A#, 2
		note G#, 4
		note A#, 2
		note A#, 1
		note G#, 2
		note F#, 2
Music_TitleScreen_Ch1_Bar20:
		note A#, 3
		note B_, 2
		note A#, 1
		note B_, 3
		note B_, 2
		note B_, 1
		note A#, 2
		note G#, 2
Music_TitleScreen_Ch1_Bar21:
		note B_, 2
		note B_, 1
		note A#, 2
		note G#, 4
		note A#, 2
		note A#, 1
		note G#, 2
		note F#, 2
Music_TitleScreen_Ch1_Bar22:
		note A#, 2
		note A#, 1
		note B_, 2
		note A#, 1
		note G#, 6
		note F#, 1
		note G_, 1
		note G#, 3
Music_TitleScreen_Ch1_Bar23:
		octave 4
		note D#, 8
		note D#, 2
		note C#, 1
		octave 3
		note B_, 2
		note G#, 2
Music_TitleScreen_Ch1_Bar24:
		note G#, 2
		note G#, 1
		note A#, 1
		note F#, 2
		note G#, 3
		octave 4
		note D#, 2
		note C#, 1
		octave 3
		note B_, 2
		octave 4
		note E_, 2
Music_TitleScreen_Ch1_Bar25:
		note D#, 2
		note C#, 2
		octave 3
		note B_, 2
		note A#, 2
		note G#, 8
Music_TitleScreen_Ch1_Bar26:
		note G#, 1
		note A#, 1
		note B_, 1
		note A#, 1
		note F#, 2
		note G#, 3
		note B_, 2
		note B_, 1
		note A#, 2
		note G#, 2
Music_TitleScreen_Ch1_Bar27:
		note B_, 2
		note B_, 1
		note A#, 2
		note G#, 4
		note A#, 2
		note A#, 1
		note G#, 2
		note F#, 2
Music_TitleScreen_Ch1_Bar28:
		note A#, 3
		note B_, 2
		note A#, 1
		note B_, 2
		octave 2
		note F#, 1
		note G_, 1
		note G#, 1
		note B_, 1
		octave 3
		note D#, 2
		octave 4
		note C#, 5
Music_TitleScreen_Ch1_Bar29:
		note C#, 1
		octave 3
		note B_, 1
		note A#, 1
		note F#, 6
		octave 4
		note C#, 2
		note D#, 5
Music_TitleScreen_Ch1_Bar30:
		note D#, 1
		note C#, 1
		octave 3
		note B_, 1
		octave 4
		note D#, 9
Music_TitleScreen_Ch1_Bar31:
		note F_, 4
		note F_, 1
		note D#, 1
		note D_, 1
		octave 3
		note A#, 7
		octave 4
		note F_, 2
Music_TitleScreen_Ch1_Bar32:
		note F#, 4
		note F#, 1
		note F_, 1
		note F#, 1
		note D#, 6
		octave 3
		note D#, 1
		note F_, 1
		note F#, 1
Music_TitleScreen_Ch1_Bar33:
		note F#, 3
		octave 2
		note B_, 3
		octave 3
		note F#, 10
Music_TitleScreen_Ch1_Bar34:
		note G#, 3
		note C#, 3
		note G#, 11
Music_TitleScreen_Ch1_Bar35:
		note G_, 1
		note G#, 1
		note A#, 2
		note G_, 1
		note G#, 1
		note A#, 2
		note G_, 1
		note G#, 1
		note A#, 2
		octave 4
		note C#, 1
		sound_ret

; ===========================================================================
Music_TitleScreen_Ch2:
		duty_cycle 1
		note_type 12, 7, 7 ; Expression must be 8-bit
Music_TitleScreen_Ch2_Bar1:
		rest 2
		octave 3
		note G#, 2
		note G#, 1
		note F#, 2
		note D#, 2
		note G#, 2
		note G#, 1
		note F#, 2
		note D#, 4
Music_TitleScreen_Ch2_Bar2:
		note F#, 2
		note F#, 1
		note D#, 2
		note C#, 2
		note F#, 3
		note G#, 2
		note F#, 1
		note G#, 3
Music_TitleScreen_Ch2_Bar3:
		note G#, 2
		note G#, 1
		note F#, 2
		note D#, 2
		note G#, 2
		note G#, 1
		note F#, 2
		note D#, 4
Music_TitleScreen_Ch2_Bar4:
		note F#, 2
		note F#, 1
		note D#, 2
		note C#, 2
		note F#, 2
		note F#, 1
		note G#, 2
		note F#, 1
		note D#, 6
Music_TitleScreen_Ch2_Bar5:
		note C#, 1
		note D_, 1
		note D#, 3
		note G_, 8
Music_TitleScreen_Ch2_Bar6:
		note B_, 2
		note A#, 1
		note G#, 2
		note D#, 2
		note D#, 2
		note D#, 1
		note C#, 3
		octave 2
		note B_, 3
Music_TitleScreen_Ch2_Bar7:
		octave 3
		note A#, 2
		note A#, 1
		note G#, 2
		note F#, 2
		note E_, 2
		note D#, 2
		note C#, 2
		note D#, 2
Music_TitleScreen_Ch2_Bar8:
		note E_, 8
		octave 2
		note B_, 1
		octave 3
		note C#, 1
		note D#, 1
		note D#, 1
		note D#, 2
		note D#, 3
Music_TitleScreen_Ch2_Bar9:
		note G#, 2
		note G#, 1
		note F#, 2
		note D#, 2
		note G#, 2
		note G#, 1
		note F#, 2
		note D#, 4
Music_TitleScreen_Ch2_Bar10:
		note F#, 2
		note F#, 1
		note D#, 2
		note C#, 2
		note F#, 3
		note G#, 2
		note F#, 1
		note G#, 8
Music_TitleScreen_Ch2_Bar11:
		octave 2
		note F#, 5
		note F#, 1
		note F#, 1
		note G#, 1
		note A#, 2
Music_TitleScreen_Ch2_Bar12:
		note B_, 1
		octave 3
		note C#, 3
		octave 2
		note A#, 2
		note B_, 5
		note F#, 8
Music_TitleScreen_Ch2_Bar13:
		octave 3
		note F#, 1
		note F#, 3
		octave 2
		note G#, 4
		note G#, 1
		note A_, 1
		note G#, 1
		note D_, 3
Music_TitleScreen_Ch2_Bar14:
		note D_, 4
		note G#, 2
		note A#, 11
Music_TitleScreen_Ch2_Bar15:
		octave 3
		note A#, 1
		note A#, 1
		octave 2
		note C_, 1
		note C#, 1
		note D#, 1
		note B_, 3
		note B_, 3
		note B_, 10
Music_TitleScreen_Ch2_Bar16:
		octave 3
		note C#, 3
		note C#, 3
		note C#, 11
Music_TitleScreen_Ch2_Bar17:
		note D#, 1
		note F_, 1
		note G_, 2
		note D#, 1
		note F_, 1
		note G_, 2
Music_TitleScreen_Ch2_Bar18:
		note D#, 1
		note F_, 1
		note G_, 2
		note A#, 1
		note A#, 4
		note G#, 2
		note G#, 1
		note F#, 2
		note D#, 2
Music_TitleScreen_Ch2_Bar19:
		note G#, 2
		note G#, 1
		note F#, 2
		note D#, 4
		note F#, 2
		note F#, 1
		note D#, 2
		note C#, 2
Music_TitleScreen_Ch2_Bar20:
		note F#, 3
		note G#, 2
		note F#, 1
		note G#, 3
		note G#, 2
		note G#, 1
		note F#, 2
		note D#, 2
Music_TitleScreen_Ch2_Bar21:
		note G#, 2
		note G#, 1
		note F#, 2
		note D#, 4
		note F#, 2
		note F#, 1
		note D#, 2
		note C#, 2
Music_TitleScreen_Ch2_Bar22:
		note F#, 2
		note F#, 1
		note G#, 2
		note F#, 1
		note D#, 6
		note C#, 1
		note D_, 1
		note D#, 3
Music_TitleScreen_Ch2_Bar23:
		note G_, 8
		note B_, 2
		note A#, 1
		note G#, 2
		note D#, 2
Music_TitleScreen_Ch2_Bar24:
		note D#, 2
		note D#, 1
		note C#, 3
		octave 2
		note B_, 3
		octave 3
		note A#, 2
		note A#, 1
		note G#, 2
		note F#, 2
Music_TitleScreen_Ch2_Bar25:
		note E_, 2
		note D#, 2
		note C#, 2
		note D#, 2
		note E_, 8
Music_TitleScreen_Ch2_Bar26:
		octave 2
		note B_, 1
		octave 3
		note C#, 1
		note D#, 1
		note D#, 1
		note D#, 2
		note D#, 3
		note G#, 2
		note G#, 1
		note F#, 2
		note D#, 2
Music_TitleScreen_Ch2_Bar27:
		note G#, 2
		note G#, 1
		note F#, 2
		note D#, 4
		note F#, 2
		note F#, 1
		note D#, 2
		note C#, 2
Music_TitleScreen_Ch2_Bar28:
		note F#, 3
		note G#, 2
		note F#, 1
		note G#, 8
		octave 2
		note F#, 5
Music_TitleScreen_Ch2_Bar29:
		note F#, 1
		note F#, 1
		note G#, 1
		note A#, 2
		note B_, 1
		octave 3
		note C#, 3
		octave 2
		note A#, 2
		note B_, 5
Music_TitleScreen_Ch2_Bar30:
		note F#, 8
		octave 3
		note F#, 1
		note F#, 3
Music_TitleScreen_Ch2_Bar31:
		octave 2
		note G#, 4
		note G#, 1
		note A_, 1
		note G#, 1
		note D_, 3
		note D_, 4
		note G#, 2
Music_TitleScreen_Ch2_Bar32:
		note A#, 11
		octave 3
		note A#, 1
		note A#, 1
		octave 2
		note C_, 1
		note C#, 1
		note D#, 1
Music_TitleScreen_Ch2_Bar33:
		note B_, 3
		note B_, 3
		note B_, 10
Music_TitleScreen_Ch2_Bar34:
		octave 3
		note C#, 3
		note C#, 3
		note C#, 11
Music_TitleScreen_Ch2_Bar35:
		note D#, 1
		note F_, 1
		note G_, 2
		note D#, 1
		note F_, 1
		note G_, 2
		note D#, 1
		note F_, 1
		note G_, 2
		note A#, 1
		sound_ret

; ===========================================================================
Music_TitleScreen_Ch3:
		note_type 12, 2, 7
Music_TitleScreen_Ch3_Bar1:
		octave 2
		note G#, 1
		note G#, 1
		note G#, 1
		note G#, 1
		note G#, 1
		note G#, 1
		note G#, 1
		note G#, 1
		note F#, 1
		note F#, 1
		note F#, 1
		note F#, 1
		note F#, 1
		note F#, 1
		note F#, 1
		note F#, 1
Music_TitleScreen_Ch3_Bar2:
		note G#, 1
		note G#, 1
		note G#, 1
		note G#, 1
		note G#, 1
		note G#, 1
		note G#, 1
		note G#, 1
		note G#, 1
		note G#, 1
		note G#, 1
		note F#, 1
		note F#, 1
		note F#, 1
		note F#, 1
		note F#, 1
Music_TitleScreen_Ch3_Bar3:
		note F#, 1
		note F#, 1
		note F#, 1
		note G#, 2
		note G#, 8
		note B_, 6
Music_TitleScreen_Ch3_Bar4:
		note G#, 1
		note G#, 1
		note G#, 1
		note G#, 1
		note G#, 1
		note G#, 1
		note G#, 1
		note G#, 1
		note F#, 1
		note F#, 1
		note F#, 1
		note F#, 1
		note F#, 1
Music_TitleScreen_Ch3_Bar5:
		note F#, 1
		note F#, 1
		note F#, 1
		note E_, 1
		note E_, 1
		note E_, 2
		note E_, 1
		octave 1
		note G#, 1
		octave 2
		note G#, 1
		note A#, 1
		note B_, 1
		note D#, 2
		note F#, 1
		note G#, 1
Music_TitleScreen_Ch3_Bar6:
		note G#, 1
		note G#, 1
		note G#, 1
		note G#, 1
		note G#, 1
		note G#, 1
		note G#, 1
		note G#, 1
		note F#, 1
		note F#, 1
		note F#, 1
		note F#, 1
		note F#, 1
		note F#, 1
		note F#, 1
		note F#, 1
Music_TitleScreen_Ch3_Bar7:
		note G#, 8
		note A#, 2
		note A#, 1
		octave 3
		note D#, 2
		octave 2
		note A#, 1
		note A#, 1
		octave 3
		note D#, 2
Music_TitleScreen_Ch3_Bar8:
		octave 2
		note A#, 1
		note A#, 1
		octave 3
		note D#, 2
		octave 2
		note A#, 1
		note A#, 1
		octave 3
		note D#, 2
		octave 2
		note B_, 1
		note B_, 1
		octave 3
		note D#, 2
		octave 2
		note B_, 1
		note B_, 1
		octave 3
		note D#, 2
Music_TitleScreen_Ch3_Bar9:
		octave 2
		note B_, 1
		note B_, 1
		octave 3
		note D#, 2
		octave 2
		note B_, 1
		note B_, 1
		octave 3
		note D#, 2
		note D_, 1
		note D_, 1
		note D#, 2
		note D_, 1
		note D_, 1
		note D#, 2
Music_TitleScreen_Ch3_Bar10:
		note D_, 1
		note D_, 1
		note D#, 2
		note D_, 1
		note D_, 1
		note D#, 2
		note D#, 1
		note D#, 1
		note D#, 2
		note D#, 1
		note D#, 1
		note D#, 2
Music_TitleScreen_Ch3_Bar11:
		note D#, 1
		note D#, 1
		note D#, 2
		note D#, 1
		note D#, 1
		note D#, 2
		octave 2
		note D#, 1
		note D#, 1
		note D#, 1
		note D#, 1
		note D#, 1
		note D#, 1
		note D#, 1
Music_TitleScreen_Ch3_Bar12:
		note D#, 1
		note F_, 1
		note F_, 1
		note F_, 1
		note F_, 1
		note F_, 1
		note F_, 1
		note F_, 1
		note F_, 1
		note D#, 1
		note D#, 1
		octave 3
		note G_, 2
		octave 2
		note D#, 1
		note D#, 1
		octave 3
		note G_, 2
Music_TitleScreen_Ch3_Bar13:
		octave 2
		note D#, 1
		note D#, 1
		octave 3
		note G_, 2
		octave 2
		note F#, 1
		note F#, 1
		note F#, 1
		note G_, 1
		note G#, 1
		note G#, 1
		note G#, 1
		note G#, 1
		note G#, 1
		note G#, 1
		note G#, 1
Music_TitleScreen_Ch3_Bar14:
		note G#, 1
		note F#, 1
		note F#, 1
		note F#, 1
		note F#, 1
		note F#, 1
		note F#, 1
		note F#, 1
		note F#, 1
		note G#, 1
		note G#, 1
		note G#, 1
		note G#, 1
		note G#, 1
		note G#, 1
		note G#, 1
Music_TitleScreen_Ch3_Bar15:
		note G#, 1
		note G#, 1
		note G#, 1
		note G#, 1
		note F#, 1
		note F#, 1
		note F#, 1
		note F#, 1
		note F#, 1
		note F#, 1
		note F#, 1
		note F#, 1
		note G#, 2
		note G#, 8
Music_TitleScreen_Ch3_Bar16:
		note B_, 6
		note G#, 1
		note G#, 1
		note G#, 1
		note G#, 1
Music_TitleScreen_Ch3_Bar17:
		note G#, 1
		note G#, 1
		note G#, 1
		note G#, 1
		note F#, 1
		note F#, 1
		note F#, 1
		note F#, 1
		note F#, 1
		note F#, 1
		note F#, 1
		note F#, 1
		note E_, 1
		note E_, 1
		note E_, 2
Music_TitleScreen_Ch3_Bar18:
		note E_, 1
		octave 1
		note G#, 1
		octave 2
		note G#, 1
		note A#, 1
		note B_, 1
		note D#, 2
		note F#, 1
		note G#, 1
		note G#, 1
		note G#, 1
		note G#, 1
		note G#, 1
		note G#, 1
		note G#, 1
		note G#, 1
Music_TitleScreen_Ch3_Bar19:
		note G#, 1
		note F#, 1
		note F#, 1
		note F#, 1
		note F#, 1
		note F#, 1
		note F#, 1
		note F#, 1
		note F#, 1
		note G#, 8
Music_TitleScreen_Ch3_Bar20:
		note A#, 2
		note A#, 1
		octave 3
		note D#, 2
		octave 2
		note A#, 1
		note A#, 1
		octave 3
		note D#, 2
		octave 2
		note A#, 1
		note A#, 1
		octave 3
		note D#, 2
		octave 2
		note A#, 1
		note A#, 1
Music_TitleScreen_Ch3_Bar21:
		octave 3
		note D#, 2
		octave 2
		note B_, 1
		note B_, 1
		octave 3
		note D#, 2
		octave 2
		note B_, 1
		note B_, 1
		octave 3
		note D#, 2
		octave 2
		note B_, 1
		note B_, 1
		octave 3
		note D#, 2
		octave 2
		note B_, 1
		note B_, 1
Music_TitleScreen_Ch3_Bar22:
		octave 3
		note D#, 2
		note D_, 1
		note D_, 1
		note D#, 2
		note D_, 1
		note D_, 1
		note D#, 2
		note D_, 1
		note D_, 1
		note D#, 2
		note D_, 1
		note D_, 1
Music_TitleScreen_Ch3_Bar23:
		note D#, 2
		note D#, 1
		note D#, 1
		note D#, 2
		note D#, 1
		note D#, 1
		note D#, 2
		note D#, 1
		note D#, 1
		note D#, 2
		note D#, 1
		note D#, 1
Music_TitleScreen_Ch3_Bar24:
		note D#, 2
		octave 2
		note D#, 1
		note D#, 1
		note D#, 1
		note D#, 1
		note D#, 1
		note D#, 1
		note D#, 1
		note D#, 1
		note F_, 1
		note F_, 1
		note F_, 1
		note F_, 1
		note F_, 1
		note F_, 1
Music_TitleScreen_Ch3_Bar25:
		note F_, 1
		note F_, 1
		note D#, 1
		note D#, 1
		octave 3
		note G_, 2
		octave 2
		note D#, 1
		note D#, 1
		octave 3
		note G_, 2
		octave 2
		note D#, 1
		note D#, 1
		octave 3
		note G_, 2
		octave 2
		note F#, 1
		note F#, 1
Music_TitleScreen_Ch3_Bar26:
		note F#, 1
		sound_ret

; ===========================================================================
Music_TitleScreen_Ch4:
		drum_speed 12
		toggle_noise 0
Music_TitleScreen_Ch4_Bar1:
		drum_note 1, 2
		drum_note 3, 2
		drum_note 1, 1
		drum_note 1, 1
		drum_note 3, 2
		drum_note 1, 2
		drum_note 3, 2
		drum_note 1, 1
		drum_note 1, 1
		drum_note 3, 2
Music_TitleScreen_Ch4_Bar2:
		drum_note 1, 2
		drum_note 3, 2
		drum_note 1, 1
		drum_note 1, 1
		drum_note 3, 2
		drum_note 1, 2
		drum_note 3, 2
		drum_note 1, 1
		drum_note 1, 1
		drum_note 3, 2
Music_TitleScreen_Ch4_Bar3:
		drum_note 1, 2
		drum_note 3, 2
		drum_note 1, 1
		drum_note 1, 1
		drum_note 3, 2
		drum_note 1, 2
		drum_note 3, 2
		drum_note 1, 1
		drum_note 1, 1
		drum_note 3, 2
Music_TitleScreen_Ch4_Bar4:
		drum_note 1, 2
		drum_note 3, 2
		drum_note 1, 1
		drum_note 1, 1
		drum_note 3, 2
		drum_note 1, 2
		drum_note 3, 2
		drum_note 1, 1
		drum_note 1, 1
		drum_note 3, 2
Music_TitleScreen_Ch4_Bar5:
		drum_note 3, 2
		drum_note 3, 2
		drum_note 12, 1
		drum_note 10, 1
		drum_note 3, 2
		drum_note 1, 2
		drum_note 3, 1
		drum_note 3, 1
		drum_note 1, 2
		drum_note 3, 2
Music_TitleScreen_Ch4_Bar6:
		drum_note 1, 2
		drum_note 3, 1
		drum_note 3, 1
		drum_note 1, 2
		drum_note 3, 2
		drum_note 1, 2
		drum_note 3, 1
		drum_note 3, 1
		drum_note 1, 2
		drum_note 3, 2
Music_TitleScreen_Ch4_Bar7:
		drum_note 1, 2
		drum_note 3, 1
		drum_note 3, 1
		drum_note 1, 2
		drum_note 3, 2
		drum_note 1, 2
		drum_note 3, 1
		drum_note 3, 1
		drum_note 1, 2
		drum_note 3, 2
Music_TitleScreen_Ch4_Bar8:
		drum_note 1, 2
		drum_note 3, 1
		drum_note 3, 1
		drum_note 1, 2
		drum_note 9, 1
		drum_note 9, 1
		drum_note 9, 1
		drum_note 9, 1
		drum_note 1, 2
		drum_note 3, 2
		drum_note 1, 1
		drum_note 1, 1
Music_TitleScreen_Ch4_Bar9:
		drum_note 3, 2
		drum_note 1, 2
		drum_note 3, 2
		drum_note 1, 1
		drum_note 1, 1
		drum_note 3, 2
		drum_note 1, 2
		drum_note 3, 2
		drum_note 1, 1
		drum_note 1, 1
Music_TitleScreen_Ch4_Bar10:
		drum_note 3, 2
		drum_note 1, 2
		drum_note 3, 2
		drum_note 1, 1
		drum_note 1, 1
		drum_note 3, 2
		drum_note 1, 2
		drum_note 3, 2
		drum_note 1, 1
		drum_note 1, 1
Music_TitleScreen_Ch4_Bar11:
		drum_note 3, 1
		drum_note 11, 1
		drum_note 11, 1
		drum_note 9, 1
		drum_note 11, 1
		drum_note 9, 1
		drum_note 11, 1
		drum_note 9, 1
		drum_note 11, 1
		drum_note 9, 1
		drum_note 11, 1
		drum_note 9, 1
		drum_note 11, 1
		drum_note 9, 1
		drum_note 11, 1
		drum_note 9, 1
Music_TitleScreen_Ch4_Bar12:
		drum_note 11, 1
		drum_note 9, 1
		drum_note 11, 1
		drum_note 9, 1
		drum_note 11, 1
		drum_note 9, 1
		drum_note 11, 1
		drum_note 9, 1
		drum_note 11, 1
		drum_note 9, 1
		drum_note 11, 1
		drum_note 9, 1
		drum_note 11, 1
		drum_note 9, 1
		drum_note 11, 1
		drum_note 9, 1
Music_TitleScreen_Ch4_Bar13:
		drum_note 11, 1
		drum_note 9, 1
		drum_note 11, 1
		drum_note 9, 1
		drum_note 11, 1
		drum_note 9, 1
		drum_note 11, 1
		drum_note 9, 1
		drum_note 11, 1
		drum_note 9, 1
		drum_note 11, 1
		drum_note 9, 1
		drum_note 11, 1
		drum_note 9, 1
		drum_note 11, 1
		drum_note 9, 1
Music_TitleScreen_Ch4_Bar14:
		drum_note 11, 1
		drum_note 9, 1
		drum_note 11, 1
		drum_note 9, 1
		drum_note 11, 1
		drum_note 9, 1
		drum_note 11, 1
		drum_note 9, 1
		drum_note 11, 1
		drum_note 9, 1
		drum_note 11, 1
		drum_note 9, 1
		drum_note 11, 1
		drum_note 9, 1
		drum_note 9, 1
		drum_note 1, 2
Music_TitleScreen_Ch4_Bar15:
		drum_note 3, 2
		drum_note 1, 1
		drum_note 1, 1
		drum_note 3, 2
		drum_note 9, 1
		drum_note 9, 1
		drum_note 9, 1
		drum_note 9, 1
		drum_note 9, 1
		drum_note 1, 2
		drum_note 3, 2
Music_TitleScreen_Ch4_Bar16:
		drum_note 1, 1
		drum_note 1, 1
		drum_note 3, 2
		drum_note 9, 1
		drum_note 9, 1
		drum_note 9, 1
		drum_note 11, 1
		drum_note 7, 1
		drum_note 9, 1
		drum_note 7, 1
		drum_note 11, 1
		drum_note 7, 1
		drum_note 9, 1
		drum_note 7, 1
		drum_note 11, 1
Music_TitleScreen_Ch4_Bar17:
		drum_note 7, 1
		drum_note 7, 1
		drum_note 7, 1
		drum_note 11, 1
		drum_note 7, 1
		drum_note 7, 1
		drum_note 7, 1
		drum_note 1, 2
		drum_note 3, 2
		drum_note 1, 1
		drum_note 1, 1
		drum_note 3, 2
		drum_note 1, 2
Music_TitleScreen_Ch4_Bar18:
		drum_note 3, 2
		drum_note 1, 1
		drum_note 1, 1
		drum_note 3, 2
		drum_note 1, 2
		drum_note 3, 2
		drum_note 1, 1
		drum_note 1, 1
		drum_note 3, 2
		drum_note 1, 2
Music_TitleScreen_Ch4_Bar19:
		drum_note 3, 2
		drum_note 1, 1
		drum_note 1, 1
		drum_note 3, 2
		drum_note 1, 2
		drum_note 3, 2
		drum_note 1, 1
		drum_note 1, 1
		drum_note 3, 2
		drum_note 1, 2
Music_TitleScreen_Ch4_Bar20:
		drum_note 3, 2
		drum_note 1, 1
		drum_note 1, 1
		drum_note 3, 2
		drum_note 1, 2
		drum_note 3, 2
		drum_note 1, 1
		drum_note 1, 1
		drum_note 3, 2
		drum_note 1, 2
Music_TitleScreen_Ch4_Bar21:
		drum_note 3, 2
		drum_note 1, 1
		drum_note 1, 1
		drum_note 3, 2
		drum_note 3, 2
		drum_note 3, 2
		drum_note 12, 1
		drum_note 10, 1
		drum_note 3, 2
		drum_note 1, 2
Music_TitleScreen_Ch4_Bar22:
		drum_note 3, 1
		drum_note 3, 1
		drum_note 1, 2
		drum_note 3, 2
		drum_note 1, 2
		drum_note 3, 1
		drum_note 3, 1
		drum_note 1, 2
		drum_note 3, 2
		drum_note 1, 2
Music_TitleScreen_Ch4_Bar23:
		drum_note 3, 1
		drum_note 3, 1
		drum_note 1, 2
		drum_note 3, 2
		drum_note 1, 2
		drum_note 3, 1
		drum_note 3, 1
		drum_note 1, 2
		drum_note 3, 2
		drum_note 1, 2
Music_TitleScreen_Ch4_Bar24:
		drum_note 3, 1
		drum_note 3, 1
		drum_note 1, 2
		drum_note 3, 2
		drum_note 1, 2
		drum_note 3, 1
		drum_note 3, 1
		drum_note 1, 2
		drum_note 9, 1
		drum_note 9, 1
		drum_note 9, 1
Music_TitleScreen_Ch4_Bar25:
		drum_note 9, 1
		drum_note 1, 2
		drum_note 3, 2
		drum_note 1, 1
		drum_note 1, 1
		drum_note 3, 2
		drum_note 1, 2
		drum_note 3, 2
		drum_note 1, 1
		drum_note 1, 1
		drum_note 3, 2
Music_TitleScreen_Ch4_Bar26:
		drum_note 1, 2
		drum_note 3, 2
		drum_note 1, 1
		drum_note 1, 1
		drum_note 3, 2
		drum_note 1, 2
		drum_note 3, 2
		drum_note 1, 1
		drum_note 1, 1
		drum_note 3, 2
Music_TitleScreen_Ch4_Bar27:
		drum_note 1, 2
		drum_note 3, 2
		drum_note 1, 1
		drum_note 1, 1
		drum_note 3, 1
		drum_note 11, 1
		drum_note 11, 1
		drum_note 9, 1
		drum_note 11, 1
		drum_note 9, 1
		drum_note 11, 1
		drum_note 9, 1
		drum_note 11, 1
Music_TitleScreen_Ch4_Bar28:
		drum_note 9, 1
		drum_note 11, 1
		drum_note 9, 1
		drum_note 11, 1
		drum_note 9, 1
		drum_note 11, 1
		drum_note 9, 1
		drum_note 11, 1
		drum_note 9, 1
		drum_note 11, 1
		drum_note 9, 1
		drum_note 11, 1
		drum_note 9, 1
		drum_note 11, 1
		drum_note 9, 1
		drum_note 11, 1
Music_TitleScreen_Ch4_Bar29:
		drum_note 9, 1
		drum_note 11, 1
		drum_note 9, 1
		drum_note 11, 1
		drum_note 9, 1
		drum_note 11, 1
		drum_note 9, 1
		drum_note 11, 1
		drum_note 9, 1
		drum_note 11, 1
		drum_note 9, 1
		drum_note 11, 1
		drum_note 9, 1
		drum_note 11, 1
		drum_note 9, 1
		drum_note 11, 1
Music_TitleScreen_Ch4_Bar30:
		drum_note 9, 1
		drum_note 11, 1
		drum_note 9, 1
		drum_note 11, 1
		drum_note 9, 1
		drum_note 11, 1
		drum_note 9, 1
		drum_note 11, 1
		drum_note 9, 1
		drum_note 11, 1
		drum_note 9, 1
		drum_note 11, 1
		drum_note 9, 1
		drum_note 11, 1
		drum_note 9, 1
		drum_note 11, 1
Music_TitleScreen_Ch4_Bar31:
		drum_note 9, 1
		drum_note 11, 1
		drum_note 9, 1
		drum_note 11, 1
		drum_note 9, 1
		drum_note 9, 1
		drum_note 1, 2
		drum_note 3, 2
		drum_note 1, 1
		drum_note 1, 1
		drum_note 3, 2
		drum_note 9, 1
		drum_note 9, 1
Music_TitleScreen_Ch4_Bar32:
		drum_note 9, 1
		drum_note 9, 1
		drum_note 9, 1
		drum_note 1, 2
		drum_note 3, 2
		drum_note 1, 1
		drum_note 1, 1
		drum_note 3, 2
		drum_note 9, 1
		drum_note 9, 1
		drum_note 9, 1
		drum_note 11, 1
		drum_note 7, 1
Music_TitleScreen_Ch4_Bar33:
		drum_note 9, 1
		drum_note 7, 1
		drum_note 11, 1
		drum_note 7, 1
		drum_note 9, 1
		drum_note 7, 1
		drum_note 11, 1
		drum_note 7, 1
		drum_note 7, 1
		drum_note 7, 1
		drum_note 11, 1
		drum_note 7, 1
		drum_note 7, 1
		sound_ret
