; ===========================================================================
; Song name: New song
;
; File converted by FroggestSpirit's Midi to GSC ASM converter 1.barelyabove0
; ===========================================================================
Music_TitleScreen:
	channel_count 4
	channel 1, Music_TitleScreen_Ch1
	channel 2, Music_TitleScreen_Ch2
	channel 3, Music_TitleScreen_Ch3
	channel 4, Music_TitleScreen_Ch4

Music_TitleScreen_Ch1:
		tempo 112
		volume 7, 7
		duty_cycle 1
		note_type 12, 10, 7
		stereo_panning TRUE, FALSE
Music_TitleScreen_Ch1_Bar1:
		octave 2
		duty_cycle 0
		note A_, 1
		note F#, 1
		note A_, 1
		note B_, 1
		octave 3
		note D_, 1
		note C_, 1
		note C#, 1
		note D_, 2
		note F#, 2
		note A_, 2
		note B_, 2
		octave 4
		note C_, 1
Music_TitleScreen_Ch1_Bar2:
		note C#, 4
		note C#, 4
		note C#, 4
		note C#, 4
Music_TitleScreen_Ch1_Bar3:
		octave 1
		note F#, 4
		note A_, 4
		note B_, 10
Music_TitleScreen_Ch1_Bar4:
		octave 2
		note C_, 2
		octave 1
		note B_, 2
		note A_, 10
Music_TitleScreen_Ch1_Bar5:
		note F#, 4
		note A_, 4
		note B_, 10
Music_TitleScreen_Ch1_Bar6:
		octave 2
		note C_, 2
		octave 1
		note B_, 2
		note A_, 14
Music_TitleScreen_Ch1_Bar7:
		octave 4
		note B_, 4
		note B_, 2
		note A_, 6
Music_TitleScreen_Ch1_Bar8:
		note B_, 2
		octave 5
		note C#, 4
		octave 4
		note B_, 4
		note A_, 10
Music_TitleScreen_Ch1_Bar9:
		note B_, 4
		note B_, 2
		note A_, 6
Music_TitleScreen_Ch1_Bar10:
		octave 5
		note D#, 6
		octave 4
		note A_, 14
Music_TitleScreen_Ch1_Bar11:
		note B_, 4
		note B_, 2
		note A_, 6
Music_TitleScreen_Ch1_Bar12:
		note B_, 2
		octave 5
		note C#, 4
		octave 4
		note B_, 4
		note A_, 10
Music_TitleScreen_Ch1_Bar13:
		note B_, 4
		note B_, 2
		note A_, 6
Music_TitleScreen_Ch1_Bar14:
		octave 5
		note D#, 6
		octave 4
		note A_, 10
Music_TitleScreen_Ch1_Bar15:
		octave 2
		note B_, 2
		note B_, 2
		note A_, 2
		note B_, 4
		note B_, 2
		note A_, 2
		note B_, 2
Music_TitleScreen_Ch1_Bar16:
		note B_, 1
		octave 3
		note C#, 1
		octave 2
		note B_, 2
		note A_, 2
		note F#, 10
Music_TitleScreen_Ch1_Bar17:
		note B_, 2
		note B_, 2
		note A_, 2
		note B_, 4
		octave 3
		note F_, 1
		note F#, 1
		note F_, 2
		note E_, 16
Music_TitleScreen_Ch1_Bar18:
		note E_, 2
Music_TitleScreen_Ch1_Bar19:
		note A_, 2
		note A_, 2
		note F#, 2
		note A_, 4
		note A_, 2
		note F#, 2
		note A_, 2
Music_TitleScreen_Ch1_Bar20:
		note A_, 1
		note B_, 3
		octave 4
		note C#, 4
		octave 3
		note B_, 2
		note F#, 6
Music_TitleScreen_Ch1_Bar21:
		note E_, 2
		note E_, 2
		note C#, 2
		note E_, 4
		note G#, 1
		note A_, 1
		note G#, 2
		note F#, 16
Music_TitleScreen_Ch1_Bar22:
		note F#, 2
Music_TitleScreen_Ch1_Bar23:
		octave 2
		note B_, 2
		note B_, 2
		note A_, 2
		note B_, 4
		note B_, 2
		note A_, 2
		note B_, 2
Music_TitleScreen_Ch1_Bar24:
		note B_, 1
		octave 3
		note C#, 1
		octave 2
		note B_, 2
		note A_, 2
		note F#, 10
Music_TitleScreen_Ch1_Bar25:
		note B_, 2
		note B_, 2
		note A_, 2
		note B_, 4
		octave 3
		note F_, 1
		note F#, 1
		note F_, 2
		note E_, 16
Music_TitleScreen_Ch1_Bar26:
		note E_, 2
Music_TitleScreen_Ch1_Bar27:
		note A_, 2
		note A_, 2
		note F#, 2
		note A_, 4
		note A_, 2
		note F#, 2
		note A_, 2
Music_TitleScreen_Ch1_Bar28:
		note A_, 1
		note B_, 3
		octave 4
		note C#, 4
		octave 3
		note B_, 2
		note F#, 6
Music_TitleScreen_Ch1_Bar29:
		note E_, 2
		note E_, 2
		note C#, 2
		note E_, 4
		note G#, 1
		note A_, 1
		note G#, 2
		note F#, 16
Music_TitleScreen_Ch1_Bar30:
		note F#, 2
Music_TitleScreen_Ch1_Bar31:
		octave 2
		note F#, 1
		note E_, 1
		note F#, 2
		note A_, 2
		note B_, 1
		note A_, 1
		note B_, 2
		octave 3
		note C#, 2
		note E_, 1
		note C#, 1
		note E_, 2
Music_TitleScreen_Ch1_Bar32:
		note F#, 2
		note A_, 2
		note B_, 2
		octave 4
		note C#, 10
Music_TitleScreen_Ch1_Bar33:
		octave 3
		note E_, 1
		octave 2
		note B_, 1
		octave 3
		note E_, 2
		note F#, 2
		note A_, 2
		note F#, 1
		note G#, 2
		note E_, 4
		octave 4
		note C#, 3
Music_TitleScreen_Ch1_Bar34:
		octave 3
		note B_, 2
		note A_, 2
		note G#, 2
		note E_, 1
		note F#, 2
		note G#, 4
		note E_, 1
Music_TitleScreen_Ch1_Bar35:
		note B_, 4
		note A_, 4
		note G#, 4
		note F#, 3
		note F#, 2
Music_TitleScreen_Ch1_Bar36:
		note E_, 3
		note E_, 2
		note C_, 2
		note E_, 4
		note F#, 4
Music_TitleScreen_Ch1_Bar37:
		note E_, 1
		octave 2
		note B_, 1
		octave 3
		note E_, 2
		note F#, 2
		note A_, 2
		note F#, 1
		note G#, 2
		note E_, 4
		octave 4
		note C#, 3
Music_TitleScreen_Ch1_Bar38:
		octave 3
		note B_, 2
		note A_, 2
		note G#, 2
		note E_, 1
		note F#, 2
		note G#, 4
		note E_, 1
Music_TitleScreen_Ch1_Bar39:
		note B_, 4
		note A_, 4
		note G#, 4
		note F#, 3
		note F#, 2
Music_TitleScreen_Ch1_Bar40:
		note E_, 3
		note E_, 2
		note C_, 2
		note E_, 4
		note F#, 4
Music_TitleScreen_Ch1_Bar41:
		octave 2
		note A_, 1
		note F#, 1
		note A_, 1
		note B_, 1
		octave 3
		note D_, 1
		note C_, 1
		note C#, 1
		note D_, 2
		note F#, 2
		note A_, 2
		note B_, 2
		octave 4
		note C_, 1
Music_TitleScreen_Ch1_Bar42:
		note C#, 4
		note C#, 4
		note C#, 4
		note C#, 4
Music_TitleScreen_Ch1_Bar43:
		octave 1
		note F#, 4
		note A_, 4
		note B_, 10
Music_TitleScreen_Ch1_Bar44:
		octave 2
		note C_, 2
		octave 1
		note B_, 2
		note A_, 10
Music_TitleScreen_Ch1_Bar45:
		note F#, 4
		note A_, 4
		note B_, 10
Music_TitleScreen_Ch1_Bar46:
		octave 2
		note C_, 2
		octave 1
		note B_, 2
		note A_, 14
Music_TitleScreen_Ch1_Bar47:
		octave 4
		note B_, 4
		note B_, 2
		note A_, 6
Music_TitleScreen_Ch1_Bar48:
		note B_, 2
		octave 5
		note C#, 4
		octave 4
		note B_, 4
		note A_, 10
Music_TitleScreen_Ch1_Bar49:
		note B_, 4
		note B_, 2
		note A_, 6
Music_TitleScreen_Ch1_Bar50:
		octave 5
		note D#, 6
		octave 4
		note A_, 14
Music_TitleScreen_Ch1_Bar51:
		note B_, 4
		note B_, 2
		note A_, 6
Music_TitleScreen_Ch1_Bar52:
		note B_, 2
		octave 5
		note C#, 4
		octave 4
		note B_, 4
		note A_, 10
Music_TitleScreen_Ch1_Bar53:
		note B_, 4
		note B_, 2
		note A_, 6
Music_TitleScreen_Ch1_Bar54:
		octave 5
		note D#, 6
		octave 4
		note A_, 10
Music_TitleScreen_Ch1_Bar55:
		octave 2
		note B_, 2
		note B_, 2
		note A_, 2
		note B_, 4
		note B_, 2
		note A_, 2
		note B_, 2
Music_TitleScreen_Ch1_Bar56:
		note B_, 1
		octave 3
		note C#, 1
		octave 2
		note B_, 2
		note A_, 2
		note F#, 10
Music_TitleScreen_Ch1_Bar57:
		note B_, 2
		note B_, 2
		note A_, 2
		note B_, 4
		octave 3
		note F_, 1
		note F#, 1
		note F_, 2
		note E_, 16
Music_TitleScreen_Ch1_Bar58:
		note E_, 2
Music_TitleScreen_Ch1_Bar59:
		note A_, 2
		note A_, 2
		note F#, 2
		note A_, 4
		note A_, 2
		note F#, 2
		note A_, 2
Music_TitleScreen_Ch1_Bar60:
		note A_, 1
		note B_, 3
		octave 4
		note C#, 4
		octave 3
		note B_, 2
		note F#, 6
Music_TitleScreen_Ch1_Bar61:
		note E_, 2
		note E_, 2
		note C#, 2
		note E_, 4
		note G#, 1
		note A_, 1
		note G#, 2
		note F#, 16
Music_TitleScreen_Ch1_Bar62:
		note F#, 2
Music_TitleScreen_Ch1_Bar63:
		octave 2
		note B_, 2
		note B_, 2
		note A_, 2
		note B_, 4
		note B_, 2
		note A_, 2
		note B_, 2
Music_TitleScreen_Ch1_Bar64:
		note B_, 1
		octave 3
		note C#, 1
		octave 2
		note B_, 2
		note A_, 2
		note F#, 10
Music_TitleScreen_Ch1_Bar65:
		note B_, 2
		note B_, 2
		note A_, 2
		note B_, 4
		octave 3
		note F_, 1
		note F#, 1
		note F_, 2
		note E_, 16
Music_TitleScreen_Ch1_Bar66:
		note E_, 2
Music_TitleScreen_Ch1_Bar67:
		note A_, 2
		note A_, 2
		note F#, 2
		note A_, 4
		note A_, 2
		note F#, 2
		note A_, 2
Music_TitleScreen_Ch1_Bar68:
		note A_, 1
		note B_, 3
		octave 4
		note C#, 4
		octave 3
		note B_, 2
		note F#, 6
Music_TitleScreen_Ch1_Bar69:
		note E_, 2
		note E_, 2
		note C#, 2
		note E_, 4
		note G#, 1
		note A_, 1
		note G#, 2
		note F#, 16
Music_TitleScreen_Ch1_Bar70:
		note F#, 2
Music_TitleScreen_Ch1_Bar71:
		octave 2
		note F#, 1
		note E_, 1
		note F#, 2
		note A_, 2
		note B_, 1
		note A_, 1
		note B_, 2
		octave 3
		note C#, 2
		note E_, 1
		note C#, 1
		note E_, 2
Music_TitleScreen_Ch1_Bar72:
		note F#, 2
		note A_, 2
		note B_, 2
		octave 4
		note C#, 10
Music_TitleScreen_Ch1_Bar73:
		octave 3
		note E_, 1
		octave 2
		note B_, 1
		octave 3
		note E_, 2
		note F#, 2
		note A_, 2
		note F#, 1
		note G#, 2
		note E_, 4
		octave 4
		note C#, 3
Music_TitleScreen_Ch1_Bar74:
		octave 3
		note B_, 2
		note A_, 2
		note G#, 2
		note E_, 1
		note F#, 2
		note G#, 4
		note E_, 1
Music_TitleScreen_Ch1_Bar75:
		note B_, 4
		note A_, 4
		note G#, 4
		note F#, 3
		note F#, 2
Music_TitleScreen_Ch1_Bar76:
		note E_, 3
		note E_, 2
		note C_, 2
		note E_, 4
		note F#, 4
Music_TitleScreen_Ch1_Bar77:
		note E_, 1
		octave 2
		note B_, 1
		octave 3
		note E_, 2
		note F#, 2
		note A_, 2
		note F#, 1
		note G#, 2
		note E_, 4
		octave 4
		note C#, 3
Music_TitleScreen_Ch1_Bar78:
		octave 3
		note B_, 2
		note A_, 2
		note G#, 2
		note E_, 1
		note F#, 2
		note G#, 4
		note E_, 1
Music_TitleScreen_Ch1_Bar79:
		note B_, 4
		note A_, 4
		note G#, 4
		note F#, 3
		note F#, 2
Music_TitleScreen_Ch1_Bar80:
		note E_, 3
		note E_, 2
		note C_, 2
		note E_, 4
		sound_ret

; ===========================================================================
Music_TitleScreen_Ch2:
		stereo_panning FALSE, TRUE
		duty_cycle 1
		note_type 12, 10, 7
Music_TitleScreen_Ch2_Bar1:
		octave 1
		note A_, 1
		note F#, 1
		note A_, 1
		note B_, 1
		octave 2
		note D_, 1
		note C_, 1
		note C#, 1
		note D_, 2
		note F#, 2
		note A_, 2
		note B_, 2
		octave 3
		note C_, 1
Music_TitleScreen_Ch2_Bar2:
		note F#, 4
		note F#, 4
		note F#, 4
		note F#, 16
Music_TitleScreen_Ch2_Bar3:
		note F#, 16
Music_TitleScreen_Ch2_Bar4:
		note F#, 16
Music_TitleScreen_Ch2_Bar5:
		note F#, 16
Music_TitleScreen_Ch2_Bar6:
		note F#, 8
Music_TitleScreen_Ch2_Bar7:
		octave 4
		note F#, 4
		note F#, 2
		note F#, 6
Music_TitleScreen_Ch2_Bar8:
		note F#, 2
		note F#, 4
		note F#, 4
		note F#, 10
Music_TitleScreen_Ch2_Bar9:
		note F#, 4
		note F#, 2
		note F#, 6
Music_TitleScreen_Ch2_Bar10:
		note E_, 6
		note E_, 14
Music_TitleScreen_Ch2_Bar11:
		note F#, 4
		note F#, 2
		note F#, 6
Music_TitleScreen_Ch2_Bar12:
		note F#, 2
		note F#, 4
		note F#, 4
		note F#, 10
Music_TitleScreen_Ch2_Bar13:
		note F#, 4
		note F#, 2
		note F#, 6
Music_TitleScreen_Ch2_Bar14:
		note E_, 6
		note E_, 10
Music_TitleScreen_Ch2_Bar15:
		note D#, 16
Music_TitleScreen_Ch2_Bar16:
		octave 3
		note A_, 16
Music_TitleScreen_Ch2_Bar17:
		octave 4
		note D#, 12
		octave 3
		note A_, 4
Music_TitleScreen_Ch2_Bar18:
		note F#, 16
Music_TitleScreen_Ch2_Bar19:
		octave 4
		note D#, 16
Music_TitleScreen_Ch2_Bar20:
		octave 3
		note A_, 16
Music_TitleScreen_Ch2_Bar21:
		note B_, 12
		note A_, 4
Music_TitleScreen_Ch2_Bar22:
		note F#, 16
Music_TitleScreen_Ch2_Bar23:
		octave 4
		note F#, 1
		note E_, 1
		note F#, 1
		note A_, 1
		octave 5
		note C#, 1
		octave 4
		note A_, 1
		note F#, 1
		note E_, 1
		note F#, 1
		note E_, 1
		note F#, 1
		note A_, 1
		octave 5
		note C#, 1
		octave 4
		note A_, 1
		note F#, 1
		note E_, 1
Music_TitleScreen_Ch2_Bar24:
		note F#, 1
		note E_, 1
		note F#, 1
		note A_, 1
		octave 5
		note C#, 1
		octave 4
		note A_, 1
		note F#, 1
		note E_, 1
		octave 5
		note E_, 1
		note D#, 1
		note D_, 1
		note C#, 1
		note C_, 1
		octave 4
		note B_, 1
		note A#, 1
		note A_, 1
Music_TitleScreen_Ch2_Bar25:
		note F#, 1
		note E_, 1
		note F#, 1
		note A_, 1
		octave 5
		note C#, 1
		octave 4
		note A_, 1
		note F#, 1
		note E_, 1
		note F#, 1
		note E_, 1
		note F#, 1
		note A_, 1
		octave 5
		note C#, 1
		octave 4
		note A_, 1
		note F#, 1
		note E_, 1
Music_TitleScreen_Ch2_Bar26:
		note F#, 1
		note E_, 1
		note F#, 1
		note A_, 1
		octave 5
		note C#, 1
		octave 4
		note A_, 1
		note F#, 1
		note E_, 1
		octave 5
		note E_, 1
		note D#, 1
		note D_, 1
		note C#, 1
		note C_, 1
		octave 4
		note B_, 1
		note A#, 1
		note A_, 1
Music_TitleScreen_Ch2_Bar27:
		note F#, 1
		note E_, 1
		note F#, 1
		note A_, 1
		octave 5
		note C#, 1
		octave 4
		note A_, 1
		note F#, 1
		note E_, 1
		note F#, 1
		note E_, 1
		note F#, 1
		note A_, 1
		octave 5
		note C#, 1
		octave 4
		note A_, 1
		note F#, 1
		note E_, 1
Music_TitleScreen_Ch2_Bar28:
		note F#, 1
		note E_, 1
		note F#, 1
		note A_, 1
		octave 5
		note C#, 1
		octave 4
		note A_, 1
		note F#, 1
		note E_, 1
		octave 5
		note E_, 1
		note D#, 1
		note D_, 1
		note C#, 1
		note C_, 1
		octave 4
		note B_, 1
		note A#, 1
		note A_, 1
Music_TitleScreen_Ch2_Bar29:
		note F#, 1
		note E_, 1
		note F#, 1
		note A_, 1
		octave 5
		note C#, 1
		octave 4
		note A_, 1
		note F#, 1
		note E_, 1
		note F#, 1
		note E_, 1
		note F#, 1
		note A_, 1
		octave 5
		note C#, 1
		octave 4
		note A_, 1
		note F#, 1
		note E_, 1
Music_TitleScreen_Ch2_Bar30:
		note F#, 1
		note E_, 1
		note F#, 1
		note A_, 1
		octave 5
		note C#, 1
		octave 4
		note A_, 1
		note F#, 1
		note E_, 1
		octave 5
		note E_, 1
		note D#, 1
		note D_, 1
		note C#, 1
		note C_, 1
		octave 4
		note B_, 1
		note A#, 1
		note A_, 1
Music_TitleScreen_Ch2_Bar31:
		note F#, 1
		octave 3
		note B_, 1
		octave 4
		note E_, 1
		note F#, 1
		octave 3
		note B_, 1
		octave 4
		note E_, 1
		note F#, 1
		octave 3
		note B_, 1
		octave 4
		note E_, 1
		note F#, 1
		octave 3
		note B_, 1
		octave 4
		note E_, 1
		note F#, 1
		octave 3
		note B_, 1
		octave 4
		note E_, 1
		note F#, 1
Music_TitleScreen_Ch2_Bar32:
		octave 3
		note B_, 1
		octave 4
		note E_, 1
		note F#, 1
		octave 3
		note B_, 1
		octave 4
		note E_, 1
		note F#, 1
		octave 3
		note B_, 1
		octave 4
		note E_, 1
		note F#, 1
		octave 3
		note B_, 1
		octave 4
		note E_, 1
		note F#, 1
		note B_, 1
		note A_, 1
		note G#, 1
		note F#, 1
Music_TitleScreen_Ch2_Bar33:
		octave 3
		note G#, 1
		note E_, 1
		note G#, 2
		note B_, 2
		note B_, 2
		note A#, 1
		note B_, 2
		note G#, 4
		note A_, 3
Music_TitleScreen_Ch2_Bar34:
		note G#, 2
		note F#, 2
		note E_, 2
		note D_, 1
		note D#, 2
		note E_, 4
		note C#, 1
Music_TitleScreen_Ch2_Bar35:
		note G#, 4
		note F#, 4
		note E_, 4
		note D#, 3
		octave 2
		note A_, 2
Music_TitleScreen_Ch2_Bar36:
		octave 3
		note C_, 3
		note C_, 2
		note C_, 2
		note D_, 4
		note D_, 4
Music_TitleScreen_Ch2_Bar37:
		note G#, 1
		note E_, 1
		note G#, 2
		note B_, 2
		note B_, 2
		note A#, 1
		note B_, 2
		note G#, 4
		note A_, 3
Music_TitleScreen_Ch2_Bar38:
		note G#, 2
		note F#, 2
		note E_, 2
		note D_, 1
		note D#, 2
		note E_, 4
		note C#, 1
Music_TitleScreen_Ch2_Bar39:
		note G#, 4
		note F#, 4
		note E_, 4
		note D#, 3
		octave 2
		note A_, 2
Music_TitleScreen_Ch2_Bar40:
		octave 3
		note C_, 3
		note C_, 2
		note C_, 2
		note D_, 4
		note D_, 4
Music_TitleScreen_Ch2_Bar41:
		octave 1
		note A_, 1
		note F#, 1
		note A_, 1
		note B_, 1
		octave 2
		note D_, 1
		note C_, 1
		note C#, 1
		note D_, 2
		note F#, 2
		note A_, 2
		note B_, 2
		octave 3
		note C_, 1
Music_TitleScreen_Ch2_Bar42:
		note F#, 4
		note F#, 4
		note F#, 4
		note F#, 16
Music_TitleScreen_Ch2_Bar43:
		note F#, 16
Music_TitleScreen_Ch2_Bar44:
		note F#, 16
Music_TitleScreen_Ch2_Bar45:
		note F#, 16
Music_TitleScreen_Ch2_Bar46:
		note F#, 8
Music_TitleScreen_Ch2_Bar47:
		octave 4
		note F#, 4
		note F#, 2
		note F#, 6
Music_TitleScreen_Ch2_Bar48:
		note F#, 2
		note F#, 4
		note F#, 4
		note F#, 10
Music_TitleScreen_Ch2_Bar49:
		note F#, 4
		note F#, 2
		note F#, 6
Music_TitleScreen_Ch2_Bar50:
		note E_, 6
		note E_, 14
Music_TitleScreen_Ch2_Bar51:
		note F#, 4
		note F#, 2
		note F#, 6
Music_TitleScreen_Ch2_Bar52:
		note F#, 2
		note F#, 4
		note F#, 4
		note F#, 10
Music_TitleScreen_Ch2_Bar53:
		note F#, 4
		note F#, 2
		note F#, 6
Music_TitleScreen_Ch2_Bar54:
		note E_, 6
		note E_, 10
Music_TitleScreen_Ch2_Bar55:
		note D#, 16
Music_TitleScreen_Ch2_Bar56:
		octave 3
		note A_, 16
Music_TitleScreen_Ch2_Bar57:
		octave 4
		note D#, 12
		octave 3
		note A_, 4
Music_TitleScreen_Ch2_Bar58:
		note F#, 16
Music_TitleScreen_Ch2_Bar59:
		octave 4
		note D#, 16
Music_TitleScreen_Ch2_Bar60:
		octave 3
		note A_, 16
Music_TitleScreen_Ch2_Bar61:
		note B_, 12
		note A_, 4
Music_TitleScreen_Ch2_Bar62:
		note F#, 16
Music_TitleScreen_Ch2_Bar63:
		octave 4
		note F#, 1
		note E_, 1
		note F#, 1
		note A_, 1
		octave 5
		note C#, 1
		octave 4
		note A_, 1
		note F#, 1
		note E_, 1
		note F#, 1
		note E_, 1
		note F#, 1
		note A_, 1
		octave 5
		note C#, 1
		octave 4
		note A_, 1
		note F#, 1
		note E_, 1
Music_TitleScreen_Ch2_Bar64:
		note F#, 1
		note E_, 1
		note F#, 1
		note A_, 1
		octave 5
		note C#, 1
		octave 4
		note A_, 1
		note F#, 1
		note E_, 1
		octave 5
		note E_, 1
		note D#, 1
		note D_, 1
		note C#, 1
		note C_, 1
		octave 4
		note B_, 1
		note A#, 1
		note A_, 1
Music_TitleScreen_Ch2_Bar65:
		note F#, 1
		note E_, 1
		note F#, 1
		note A_, 1
		octave 5
		note C#, 1
		octave 4
		note A_, 1
		note F#, 1
		note E_, 1
		note F#, 1
		note E_, 1
		note F#, 1
		note A_, 1
		octave 5
		note C#, 1
		octave 4
		note A_, 1
		note F#, 1
		note E_, 1
Music_TitleScreen_Ch2_Bar66:
		note F#, 1
		note E_, 1
		note F#, 1
		note A_, 1
		octave 5
		note C#, 1
		octave 4
		note A_, 1
		note F#, 1
		note E_, 1
		octave 5
		note E_, 1
		note D#, 1
		note D_, 1
		note C#, 1
		note C_, 1
		octave 4
		note B_, 1
		note A#, 1
		note A_, 1
Music_TitleScreen_Ch2_Bar67:
		note F#, 1
		note E_, 1
		note F#, 1
		note A_, 1
		octave 5
		note C#, 1
		octave 4
		note A_, 1
		note F#, 1
		note E_, 1
		note F#, 1
		note E_, 1
		note F#, 1
		note A_, 1
		octave 5
		note C#, 1
		octave 4
		note A_, 1
		note F#, 1
		note E_, 1
Music_TitleScreen_Ch2_Bar68:
		note F#, 1
		note E_, 1
		note F#, 1
		note A_, 1
		octave 5
		note C#, 1
		octave 4
		note A_, 1
		note F#, 1
		note E_, 1
		octave 5
		note E_, 1
		note D#, 1
		note D_, 1
		note C#, 1
		note C_, 1
		octave 4
		note B_, 1
		note A#, 1
		note A_, 1
Music_TitleScreen_Ch2_Bar69:
		note F#, 1
		note E_, 1
		note F#, 1
		note A_, 1
		octave 5
		note C#, 1
		octave 4
		note A_, 1
		note F#, 1
		note E_, 1
		note F#, 1
		note E_, 1
		note F#, 1
		note A_, 1
		octave 5
		note C#, 1
		octave 4
		note A_, 1
		note F#, 1
		note E_, 1
Music_TitleScreen_Ch2_Bar70:
		note F#, 1
		note E_, 1
		note F#, 1
		note A_, 1
		octave 5
		note C#, 1
		octave 4
		note A_, 1
		note F#, 1
		note E_, 1
		octave 5
		note E_, 1
		note D#, 1
		note D_, 1
		note C#, 1
		note C_, 1
		octave 4
		note B_, 1
		note A#, 1
		note A_, 1
Music_TitleScreen_Ch2_Bar71:
		note F#, 1
		octave 3
		note B_, 1
		octave 4
		note E_, 1
		note F#, 1
		octave 3
		note B_, 1
		octave 4
		note E_, 1
		note F#, 1
		octave 3
		note B_, 1
		octave 4
		note E_, 1
		note F#, 1
		octave 3
		note B_, 1
		octave 4
		note E_, 1
		note F#, 1
		octave 3
		note B_, 1
		octave 4
		note E_, 1
		note F#, 1
Music_TitleScreen_Ch2_Bar72:
		octave 3
		note B_, 1
		octave 4
		note E_, 1
		note F#, 1
		octave 3
		note B_, 1
		octave 4
		note E_, 1
		note F#, 1
		octave 3
		note B_, 1
		octave 4
		note E_, 1
		note F#, 1
		octave 3
		note B_, 1
		octave 4
		note E_, 1
		note F#, 1
		note B_, 1
		note A_, 1
		note G#, 1
		note F#, 1
Music_TitleScreen_Ch2_Bar73:
		octave 3
		note G#, 1
		note E_, 1
		note G#, 2
		note B_, 2
		note B_, 2
		note A#, 1
		note B_, 2
		note G#, 4
		note A_, 3
Music_TitleScreen_Ch2_Bar74:
		note G#, 2
		note F#, 2
		note E_, 2
		note D_, 1
		note D#, 2
		note E_, 4
		note C#, 1
Music_TitleScreen_Ch2_Bar75:
		note G#, 4
		note F#, 4
		note E_, 4
		note D#, 3
		octave 2
		note A_, 2
Music_TitleScreen_Ch2_Bar76:
		octave 3
		note C_, 3
		note C_, 2
		note C_, 2
		note D_, 4
		note D_, 4
Music_TitleScreen_Ch2_Bar77:
		note G#, 1
		note E_, 1
		note G#, 2
		note B_, 2
		note B_, 2
		note A#, 1
		note B_, 2
		note G#, 4
		note A_, 3
Music_TitleScreen_Ch2_Bar78:
		note G#, 2
		note F#, 2
		note E_, 2
		note D_, 1
		note D#, 2
		note E_, 4
		note C#, 1
Music_TitleScreen_Ch2_Bar79:
		note G#, 4
		note F#, 4
		note E_, 4
		note D#, 3
		octave 2
		note A_, 2
Music_TitleScreen_Ch2_Bar80:
		octave 3
		note C_, 3
		note C_, 2
		note C_, 2
		note D_, 4
		sound_ret

; ===========================================================================
Music_TitleScreen_Ch3:
		note_type 12, 2, 7
Music_TitleScreen_Ch3_Bar1:
		rest 16
Music_TitleScreen_Ch3_Bar2:
;		intensity $12
		octave 2
		note B_, 4
		note B_, 4
		note B_, 4
		note B_, 2
		note G_, 1
		note F#, 2
Music_TitleScreen_Ch3_Bar3:
		note G#, 1
		note A_, 3
		note A#, 1
		note B_, 10
Music_TitleScreen_Ch3_Bar4:
		note B_, 1
		octave 3
		note C_, 1
		note C_, 1
		octave 2
		note B_, 1
		note B_, 1
		note A_, 8
		note G_, 1
		note F#, 2
Music_TitleScreen_Ch3_Bar5:
		note G#, 1
		note A_, 3
		note A#, 1
		note B_, 10
		note B_, 1
Music_TitleScreen_Ch3_Bar6:
		octave 3
		note C_, 1
		note C_, 1
		octave 2
		note B_, 1
		note B_, 1
		note A_, 8
		note G_, 1
		note F#, 2
		note G#, 1
Music_TitleScreen_Ch3_Bar7:
		note A_, 3
		note A#, 1
		note B_, 10
		note B_, 1
		octave 3
		note C_, 1
Music_TitleScreen_Ch3_Bar8:
		note C_, 1
		octave 2
		note B_, 1
		note B_, 1
		note A_, 8
		note G_, 1
		note F#, 2
		note G#, 1
		note A_, 3
Music_TitleScreen_Ch3_Bar9:
		note A#, 1
		note B_, 10
		note B_, 1
		octave 3
		note C_, 1
		note C_, 1
Music_TitleScreen_Ch3_Bar10:
		octave 2
		note B_, 1
		note B_, 1
		note A_, 8
		note G_, 1
		note F#, 2
		note G#, 1
		note A_, 3
Music_TitleScreen_Ch3_Bar11:
		note A#, 1
		note B_, 10
		note B_, 1
		octave 3
		note C_, 1
		octave 2
		note B_, 2
Music_TitleScreen_Ch3_Bar12:
		note B_, 1
		note A_, 8
		note G_, 1
		note F#, 2
		note G#, 1
		note A_, 3
Music_TitleScreen_Ch3_Bar13:
		note A#, 1
		note B_, 10
		note B_, 1
		octave 3
		note C_, 1
		note C_, 1
		octave 2
		note B_, 1
		note B_, 1
Music_TitleScreen_Ch3_Bar14:
		note A_, 9
		note F#, 2
		note F#, 2
		note B_, 2
		note F#, 4
Music_TitleScreen_Ch3_Bar15:
		note F#, 2
		note B_, 4
		note F#, 2
		note F#, 2
		note B_, 2
		note F#, 4
Music_TitleScreen_Ch3_Bar16:
		note F#, 2
		note B_, 4
		note F#, 2
		note F#, 2
		note B_, 2
		note F#, 4
Music_TitleScreen_Ch3_Bar17:
		note F#, 2
		note B_, 4
		note A_, 2
		note A_, 2
		octave 3
		note E_, 2
		octave 2
		note A_, 2
Music_TitleScreen_Ch3_Bar18:
		octave 3
		note G_, 2
		note F#, 2
		note E_, 2
		octave 2
		note A_, 2
		note F#, 2
		note F#, 2
		note B_, 2
		note F#, 4
Music_TitleScreen_Ch3_Bar19:
		note F#, 2
		note B_, 4
		note F#, 2
		note F#, 2
		note B_, 2
		note F#, 4
Music_TitleScreen_Ch3_Bar20:
		note F#, 2
		note B_, 4
		note F#, 2
		note F#, 2
		note B_, 2
		note F#, 4
Music_TitleScreen_Ch3_Bar21:
		note F#, 2
		note B_, 4
		note F#, 2
		note F#, 2
		note A_, 2
		note F#, 2
Music_TitleScreen_Ch3_Bar22:
		octave 3
		note C#, 2
		octave 2
		note B_, 2
		note A_, 2
		note F#, 2
		note F#, 2
		note F#, 2
		note B_, 2
		note F#, 4
Music_TitleScreen_Ch3_Bar23:
		note F#, 2
		note B_, 4
		note F#, 4
		note B_, 2
		note F#, 4
Music_TitleScreen_Ch3_Bar24:
		note F#, 2
		note B_, 4
		note F#, 2
		note F#, 2
		note B_, 2
		note F#, 4
Music_TitleScreen_Ch3_Bar25:
		note F#, 2
		note B_, 4
		note A_, 2
		note A_, 2
		octave 3
		note E_, 2
		octave 2
		note A_, 2
Music_TitleScreen_Ch3_Bar26:
		octave 3
		note G_, 2
		note F#, 2
		note E_, 2
		octave 2
		note A_, 2
		note F#, 2
		note F#, 2
		note B_, 2
		note F#, 4
Music_TitleScreen_Ch3_Bar27:
		note F#, 2
		note B_, 4
		note F#, 2
		note F#, 2
		note B_, 2
		note F#, 4
Music_TitleScreen_Ch3_Bar28:
		note F#, 2
		note B_, 4
		note F#, 2
		note F#, 2
		note B_, 2
		note F#, 4
Music_TitleScreen_Ch3_Bar29:
		note F#, 2
		note B_, 4
		note F#, 2
		note F#, 2
		note A_, 2
		note F#, 2
Music_TitleScreen_Ch3_Bar30:
		octave 3
		note C#, 2
		octave 2
		note B_, 2
		note A_, 2
		note F#, 2
		note B_, 16
Music_TitleScreen_Ch3_Bar31:
		note A_, 16
Music_TitleScreen_Ch3_Bar32:
		octave 3
		note E_, 2
		note E_, 2
		octave 2
		note B_, 1
		octave 3
		note C#, 2
Music_TitleScreen_Ch3_Bar33:
		note D_, 3
		note D_, 2
		note D_, 4
		note E_, 2
		note E_, 2
		octave 2
		note B_, 1
		octave 3
		note C#, 2
Music_TitleScreen_Ch3_Bar34:
		note D_, 3
		note D_, 2
		note D_, 4
		octave 2
		note A_, 2
		note A_, 2
		note F#, 1
		note A_, 2
Music_TitleScreen_Ch3_Bar35:
		note B_, 3
		note B_, 2
		note B_, 4
		octave 3
		note C_, 2
		note C_, 2
		octave 2
		note A_, 1
		octave 3
		note C_, 3
Music_TitleScreen_Ch3_Bar36:
		note D_, 4
		note D_, 4
		note E_, 2
		note E_, 2
		octave 2
		note B_, 1
		octave 3
		note C#, 2
Music_TitleScreen_Ch3_Bar37:
		note D_, 3
		note D_, 2
		note D_, 4
		note E_, 2
		note E_, 2
		octave 2
		note B_, 1
		octave 3
		note C#, 2
Music_TitleScreen_Ch3_Bar38:
		note D_, 3
		note D_, 2
		note D_, 4
		octave 2
		note A_, 2
		note A_, 2
		note F#, 1
		note A_, 2
Music_TitleScreen_Ch3_Bar39:
		note B_, 3
		note B_, 2
		note B_, 4
		octave 3
		note C_, 2
		note C_, 2
		octave 2
		note A_, 1
		octave 3
		note C_, 3
Music_TitleScreen_Ch3_Bar40:
		note D_, 4
		note D_, 16
Music_TitleScreen_Ch3_Bar41:
		note D_, 4
		octave 2
		note B_, 4
		note B_, 4
Music_TitleScreen_Ch3_Bar42:
		note B_, 4
		note B_, 2
		note G_, 1
		note F#, 2
		note G#, 1
		note A_, 3
		note A#, 1
		note B_, 10
Music_TitleScreen_Ch3_Bar43:
		note B_, 1
		octave 3
		note C_, 1
		note C_, 1
		octave 2
		note B_, 1
		note B_, 1
		note A_, 8
Music_TitleScreen_Ch3_Bar44:
		note G_, 1
		note F#, 2
		note G#, 1
		note A_, 3
		note A#, 1
		note B_, 10
Music_TitleScreen_Ch3_Bar45:
		note B_, 1
		octave 3
		note C_, 1
		note C_, 1
		octave 2
		note B_, 1
		note B_, 1
		note A_, 8
Music_TitleScreen_Ch3_Bar46:
		note G_, 1
		note F#, 2
		note G#, 1
		note A_, 3
		note A#, 1
		note B_, 10
Music_TitleScreen_Ch3_Bar47:
		note B_, 1
		octave 3
		note C_, 1
		note C_, 1
		octave 2
		note B_, 1
		note B_, 1
		note A_, 8
Music_TitleScreen_Ch3_Bar48:
		note G_, 1
		note F#, 2
		note G#, 1
		note A_, 3
		note A#, 1
		note B_, 10
Music_TitleScreen_Ch3_Bar49:
		note B_, 1
		octave 3
		note C_, 1
		note C_, 1
		octave 2
		note B_, 1
		note B_, 1
		note A_, 8
Music_TitleScreen_Ch3_Bar50:
		note G_, 1
		note F#, 2
		note G#, 1
		note A_, 3
		note A#, 1
		note B_, 10
Music_TitleScreen_Ch3_Bar51:
		note B_, 1
		octave 3
		note C_, 1
		octave 2
		note B_, 2
		note B_, 1
		note A_, 8
Music_TitleScreen_Ch3_Bar52:
		note G_, 1
		note F#, 2
		note G#, 1
		note A_, 3
		note A#, 1
		note B_, 10
Music_TitleScreen_Ch3_Bar53:
		note B_, 1
		octave 3
		note C_, 1
		note C_, 1
		octave 2
		note B_, 1
		note B_, 1
		note A_, 9
Music_TitleScreen_Ch3_Bar54:
		note F#, 2
		note F#, 2
		note B_, 2
		note F#, 4
		note F#, 2
		note B_, 4
Music_TitleScreen_Ch3_Bar55:
		note F#, 2
		note F#, 2
		note B_, 2
		note F#, 4
		note F#, 2
		note B_, 4
Music_TitleScreen_Ch3_Bar56:
		note F#, 2
		note F#, 2
		note B_, 2
		note F#, 4
		note F#, 2
		note B_, 4
Music_TitleScreen_Ch3_Bar57:
		note A_, 2
		note A_, 2
		octave 3
		note E_, 2
		octave 2
		note A_, 2
		octave 3
		note G_, 2
		note F#, 2
		note E_, 2
Music_TitleScreen_Ch3_Bar58:
		octave 2
		note A_, 2
		note F#, 2
		note F#, 2
		note B_, 2
		note F#, 4
		note F#, 2
		note B_, 4
Music_TitleScreen_Ch3_Bar59:
		note F#, 2
		note F#, 2
		note B_, 2
		note F#, 4
		note F#, 2
		note B_, 4
Music_TitleScreen_Ch3_Bar60:
		note F#, 2
		note F#, 2
		note B_, 2
		note F#, 4
		note F#, 2
		note B_, 4
Music_TitleScreen_Ch3_Bar61:
		note F#, 2
		note F#, 2
		note A_, 2
		note F#, 2
		octave 3
		note C#, 2
		octave 2
		note B_, 2
		note A_, 2
Music_TitleScreen_Ch3_Bar62:
		note F#, 2
		note F#, 2
		note F#, 2
		note B_, 2
		note F#, 4
		note F#, 2
		note B_, 4
Music_TitleScreen_Ch3_Bar63:
		note F#, 4
		note B_, 2
		note F#, 4
		note F#, 2
		note B_, 4
Music_TitleScreen_Ch3_Bar64:
		note F#, 2
		note F#, 2
		note B_, 2
		note F#, 4
		note F#, 2
		note B_, 4
Music_TitleScreen_Ch3_Bar65:
		note A_, 2
		note A_, 2
		octave 3
		note E_, 2
		octave 2
		note A_, 2
		octave 3
		note G_, 2
		note F#, 2
		note E_, 2
Music_TitleScreen_Ch3_Bar66:
		octave 2
		note A_, 2
		note F#, 2
		note F#, 2
		note B_, 2
		note F#, 4
		note F#, 2
		note B_, 4
Music_TitleScreen_Ch3_Bar67:
		note F#, 2
		note F#, 2
		note B_, 2
		note F#, 4
		note F#, 2
		note B_, 4
Music_TitleScreen_Ch3_Bar68:
		note F#, 2
		note F#, 2
		note B_, 2
		note F#, 4
		note F#, 2
		note B_, 4
Music_TitleScreen_Ch3_Bar69:
		note F#, 2
		note F#, 2
		note A_, 2
		note F#, 2
		octave 3
		note C#, 2
		octave 2
		note B_, 2
		note A_, 2
Music_TitleScreen_Ch3_Bar70:
		note F#, 2
		note B_, 16
Music_TitleScreen_Ch3_Bar71:
		note A_, 16
Music_TitleScreen_Ch3_Bar72:
		octave 3
		note E_, 2
		note E_, 2
		octave 2
		note B_, 1
		octave 3
		note C#, 2
		note D_, 3
		note D_, 2
		note D_, 4
Music_TitleScreen_Ch3_Bar73:
		note E_, 2
		note E_, 2
		octave 2
		note B_, 1
		octave 3
		note C#, 2
		note D_, 3
		note D_, 2
		note D_, 4
Music_TitleScreen_Ch3_Bar74:
		octave 2
		note A_, 2
		note A_, 2
		note F#, 1
		note A_, 2
		note B_, 3
		note B_, 2
		note B_, 4
Music_TitleScreen_Ch3_Bar75:
		octave 3
		note C_, 2
		note C_, 2
		octave 2
		note A_, 1
		octave 3
		note C_, 3
		note D_, 4
		note D_, 4
Music_TitleScreen_Ch3_Bar76:
		note E_, 2
		note E_, 2
		octave 2
		note B_, 1
		octave 3
		note C#, 2
		note D_, 3
		note D_, 2
		note D_, 4
Music_TitleScreen_Ch3_Bar77:
		note E_, 2
		note E_, 2
		octave 2
		note B_, 1
		octave 3
		note C#, 2
		note D_, 3
		note D_, 2
		note D_, 4
Music_TitleScreen_Ch3_Bar78:
		octave 2
		note A_, 2
		note A_, 2
		note F#, 1
		note A_, 2
		note B_, 3
		note B_, 2
		note B_, 4
Music_TitleScreen_Ch3_Bar79:
		octave 3
		note C_, 2
		note C_, 2
		octave 2
		note A_, 1
		octave 3
		note C_, 3
		note D_, 4
		sound_ret

; ===========================================================================
Music_TitleScreen_Ch4:
		drum_speed 12
		toggle_noise 1
Music_TitleScreen_Ch4_Bar1:
		rest 16
Music_TitleScreen_Ch4_Bar2:
		rest 16
Music_TitleScreen_Ch4_Bar3:
		drum_note 1, 2
		drum_note 1, 2
		drum_note 3, 1
		drum_note 1, 2
		drum_note 1, 3
		drum_note 1, 2
		drum_note 3, 2
		drum_note 1, 2
Music_TitleScreen_Ch4_Bar4:
		drum_note 1, 2
		drum_note 1, 2
		drum_note 3, 1
		drum_note 1, 2
		drum_note 1, 3
		drum_note 1, 2
		drum_note 3, 2
		drum_note 1, 2
Music_TitleScreen_Ch4_Bar5:
		drum_note 1, 2
		drum_note 1, 2
		drum_note 3, 1
		drum_note 1, 2
		drum_note 1, 3
		drum_note 1, 2
		drum_note 3, 2
		drum_note 1, 2
Music_TitleScreen_Ch4_Bar6:
		drum_note 1, 2
		drum_note 1, 2
		drum_note 3, 1
		drum_note 1, 2
		drum_note 1, 3
		drum_note 1, 2
		drum_note 3, 2
		drum_note 1, 2
Music_TitleScreen_Ch4_Bar7:
		drum_note 1, 2
		drum_note 1, 2
		drum_note 3, 1
		drum_note 1, 2
		drum_note 1, 3
		drum_note 1, 2
		drum_note 3, 2
		drum_note 1, 2
Music_TitleScreen_Ch4_Bar8:
		drum_note 1, 2
		drum_note 1, 2
		drum_note 3, 1
		drum_note 1, 2
		drum_note 1, 3
		drum_note 1, 2
		drum_note 3, 2
		drum_note 1, 2
Music_TitleScreen_Ch4_Bar9:
		drum_note 1, 2
		drum_note 1, 2
		drum_note 3, 1
		drum_note 1, 2
		drum_note 1, 3
		drum_note 1, 2
		drum_note 3, 2
		drum_note 1, 2
Music_TitleScreen_Ch4_Bar10:
		drum_note 1, 2
		drum_note 1, 2
		drum_note 3, 1
		drum_note 1, 2
		drum_note 1, 3
		drum_note 1, 2
		drum_note 3, 2
		drum_note 1, 2
Music_TitleScreen_Ch4_Bar11:
		drum_note 1, 2
		drum_note 1, 2
		drum_note 3, 1
		drum_note 1, 2
		drum_note 1, 3
		drum_note 1, 2
		drum_note 3, 2
		drum_note 1, 2
Music_TitleScreen_Ch4_Bar12:
		drum_note 1, 2
		drum_note 1, 2
		drum_note 3, 1
		drum_note 1, 2
		drum_note 1, 3
		drum_note 1, 2
		drum_note 3, 2
		drum_note 1, 2
Music_TitleScreen_Ch4_Bar13:
		drum_note 1, 2
		drum_note 1, 2
		drum_note 3, 1
		drum_note 1, 2
		drum_note 1, 3
		drum_note 1, 2
		drum_note 3, 2
		drum_note 1, 2
Music_TitleScreen_Ch4_Bar14:
		drum_note 1, 2
		drum_note 1, 2
		drum_note 3, 1
		drum_note 1, 2
		drum_note 1, 3
		drum_note 1, 2
		drum_note 3, 2
		drum_note 1, 2
Music_TitleScreen_Ch4_Bar15:
		drum_note 1, 2
		drum_note 1, 2
		drum_note 3, 1
		drum_note 1, 2
		drum_note 1, 3
		drum_note 1, 2
		drum_note 3, 2
		drum_note 1, 2
Music_TitleScreen_Ch4_Bar16:
		drum_note 1, 2
		drum_note 1, 2
		drum_note 3, 1
		drum_note 1, 2
		drum_note 1, 3
		drum_note 1, 2
		drum_note 3, 2
		drum_note 1, 2
Music_TitleScreen_Ch4_Bar17:
		drum_note 1, 2
		drum_note 1, 2
		drum_note 3, 1
		drum_note 1, 2
		drum_note 1, 3
		drum_note 1, 2
		drum_note 3, 2
		drum_note 1, 2
Music_TitleScreen_Ch4_Bar18:
		drum_note 1, 2
		drum_note 1, 2
		drum_note 3, 1
		drum_note 1, 2
		drum_note 1, 3
		drum_note 1, 2
		drum_note 3, 2
		drum_note 1, 2
Music_TitleScreen_Ch4_Bar19:
		drum_note 1, 2
		drum_note 1, 2
		drum_note 3, 1
		drum_note 1, 2
		drum_note 1, 3
		drum_note 1, 2
		drum_note 3, 2
		drum_note 1, 2
Music_TitleScreen_Ch4_Bar20:
		drum_note 1, 2
		drum_note 1, 2
		drum_note 3, 1
		drum_note 1, 2
		drum_note 1, 3
		drum_note 1, 2
		drum_note 3, 2
		drum_note 1, 2
Music_TitleScreen_Ch4_Bar21:
		drum_note 1, 2
		drum_note 1, 2
		drum_note 3, 1
		drum_note 1, 2
		drum_note 1, 3
		drum_note 1, 2
		drum_note 3, 2
		drum_note 1, 2
Music_TitleScreen_Ch4_Bar22:
		drum_note 1, 2
		drum_note 1, 2
		drum_note 3, 1
		drum_note 1, 2
		drum_note 1, 3
		drum_note 1, 2
		drum_note 3, 2
		drum_note 1, 2
Music_TitleScreen_Ch4_Bar23:
		drum_note 1, 2
		drum_note 1, 2
		drum_note 3, 1
		drum_note 1, 2
		drum_note 1, 3
		drum_note 1, 2
		drum_note 3, 2
		drum_note 1, 2
Music_TitleScreen_Ch4_Bar24:
		drum_note 1, 2
		drum_note 1, 2
		drum_note 3, 1
		drum_note 1, 2
		drum_note 1, 3
		drum_note 1, 2
		drum_note 3, 2
		drum_note 1, 2
Music_TitleScreen_Ch4_Bar25:
		drum_note 1, 2
		drum_note 1, 2
		drum_note 3, 1
		drum_note 1, 2
		drum_note 1, 3
		drum_note 1, 2
		drum_note 3, 2
		drum_note 1, 2
Music_TitleScreen_Ch4_Bar26:
		drum_note 1, 2
		drum_note 1, 2
		drum_note 3, 1
		drum_note 1, 2
		drum_note 1, 3
		drum_note 1, 2
		drum_note 3, 2
		drum_note 1, 2
Music_TitleScreen_Ch4_Bar27:
		drum_note 1, 2
		drum_note 1, 2
		drum_note 3, 1
		drum_note 1, 2
		drum_note 1, 3
		drum_note 1, 2
		drum_note 3, 2
		drum_note 1, 2
Music_TitleScreen_Ch4_Bar28:
		drum_note 1, 2
		drum_note 1, 2
		drum_note 3, 1
		drum_note 1, 2
		drum_note 1, 3
		drum_note 1, 2
		drum_note 3, 2
		drum_note 1, 2
Music_TitleScreen_Ch4_Bar29:
		drum_note 1, 2
		drum_note 1, 2
		drum_note 3, 1
		drum_note 1, 2
		drum_note 1, 3
		drum_note 1, 2
		drum_note 3, 2
		drum_note 1, 2
Music_TitleScreen_Ch4_Bar30:
		drum_note 1, 2
		drum_note 1, 2
		drum_note 3, 1
		drum_note 1, 2
		drum_note 1, 3
		drum_note 1, 2
		drum_note 3, 2
		drum_note 1, 2
Music_TitleScreen_Ch4_Bar31:
		drum_note 1, 4
		drum_note 1, 4
		drum_note 1, 4
		drum_note 1, 4
Music_TitleScreen_Ch4_Bar32:
		drum_note 1, 4
		drum_note 1, 4
		drum_note 1, 4
		drum_note 1, 4
Music_TitleScreen_Ch4_Bar33:
		drum_note 1, 2
		drum_note 1, 2
		drum_note 3, 1
		drum_note 1, 2
		drum_note 1, 3
		drum_note 1, 2
		drum_note 3, 2
		drum_note 1, 2
Music_TitleScreen_Ch4_Bar34:
		drum_note 1, 2
		drum_note 1, 2
		drum_note 3, 1
		drum_note 1, 2
		drum_note 1, 3
		drum_note 1, 2
		drum_note 3, 2
		drum_note 1, 2
Music_TitleScreen_Ch4_Bar35:
		drum_note 1, 2
		drum_note 1, 2
		drum_note 3, 1
		drum_note 1, 2
		drum_note 1, 3
		drum_note 1, 2
		drum_note 3, 2
		drum_note 1, 2
Music_TitleScreen_Ch4_Bar36:
		drum_note 1, 2
		drum_note 1, 2
		drum_note 3, 1
		drum_note 1, 2
		drum_note 1, 3
		drum_note 1, 2
		drum_note 3, 2
		drum_note 1, 2
Music_TitleScreen_Ch4_Bar37:
		drum_note 1, 2
		drum_note 1, 2
		drum_note 3, 1
		drum_note 1, 2
		drum_note 1, 3
		drum_note 1, 2
		drum_note 3, 2
		drum_note 1, 2
Music_TitleScreen_Ch4_Bar38:
		drum_note 1, 2
		drum_note 1, 2
		drum_note 3, 1
		drum_note 1, 2
		drum_note 1, 3
		drum_note 1, 2
		drum_note 3, 2
		drum_note 1, 2
Music_TitleScreen_Ch4_Bar39:
		drum_note 1, 2
		drum_note 1, 2
		drum_note 3, 1
		drum_note 1, 2
		drum_note 1, 3
		drum_note 1, 2
		drum_note 3, 2
		drum_note 1, 2
Music_TitleScreen_Ch4_Bar40:
		drum_note 1, 2
		drum_note 1, 2
		drum_note 3, 1
		drum_note 1, 2
		drum_note 1, 3
		drum_note 1, 2
		drum_note 3, 2
		drum_note 1, 16
Music_TitleScreen_Ch4_Bar41:
		drum_note 1, 16
Music_TitleScreen_Ch4_Bar42:
		drum_note 1, 2
Music_TitleScreen_Ch4_Bar43:
		drum_note 1, 2
		drum_note 1, 2
		drum_note 3, 1
		drum_note 1, 2
		drum_note 1, 3
		drum_note 1, 2
		drum_note 3, 2
		drum_note 1, 2
Music_TitleScreen_Ch4_Bar44:
		drum_note 1, 2
		drum_note 1, 2
		drum_note 3, 1
		drum_note 1, 2
		drum_note 1, 3
		drum_note 1, 2
		drum_note 3, 2
		drum_note 1, 2
Music_TitleScreen_Ch4_Bar45:
		drum_note 1, 2
		drum_note 1, 2
		drum_note 3, 1
		drum_note 1, 2
		drum_note 1, 3
		drum_note 1, 2
		drum_note 3, 2
		drum_note 1, 2
Music_TitleScreen_Ch4_Bar46:
		drum_note 1, 2
		drum_note 1, 2
		drum_note 3, 1
		drum_note 1, 2
		drum_note 1, 3
		drum_note 1, 2
		drum_note 3, 2
		drum_note 1, 2
Music_TitleScreen_Ch4_Bar47:
		drum_note 1, 2
		drum_note 1, 2
		drum_note 3, 1
		drum_note 1, 2
		drum_note 1, 3
		drum_note 1, 2
		drum_note 3, 2
		drum_note 1, 2
Music_TitleScreen_Ch4_Bar48:
		drum_note 1, 2
		drum_note 1, 2
		drum_note 3, 1
		drum_note 1, 2
		drum_note 1, 3
		drum_note 1, 2
		drum_note 3, 2
		drum_note 1, 2
Music_TitleScreen_Ch4_Bar49:
		drum_note 1, 2
		drum_note 1, 2
		drum_note 3, 1
		drum_note 1, 2
		drum_note 1, 3
		drum_note 1, 2
		drum_note 3, 2
		drum_note 1, 2
Music_TitleScreen_Ch4_Bar50:
		drum_note 1, 2
		drum_note 1, 2
		drum_note 3, 1
		drum_note 1, 2
		drum_note 1, 3
		drum_note 1, 2
		drum_note 3, 2
		drum_note 1, 2
Music_TitleScreen_Ch4_Bar51:
		drum_note 1, 2
		drum_note 1, 2
		drum_note 3, 1
		drum_note 1, 2
		drum_note 1, 3
		drum_note 1, 2
		drum_note 3, 2
		drum_note 1, 2
Music_TitleScreen_Ch4_Bar52:
		drum_note 1, 2
		drum_note 1, 2
		drum_note 3, 1
		drum_note 1, 2
		drum_note 1, 3
		drum_note 1, 2
		drum_note 3, 2
		drum_note 1, 2
Music_TitleScreen_Ch4_Bar53:
		drum_note 1, 2
		drum_note 1, 2
		drum_note 3, 1
		drum_note 1, 2
		drum_note 1, 3
		drum_note 1, 2
		drum_note 3, 2
		drum_note 1, 2
Music_TitleScreen_Ch4_Bar54:
		drum_note 1, 2
		drum_note 1, 2
		drum_note 3, 1
		drum_note 1, 2
		drum_note 1, 3
		drum_note 1, 2
		drum_note 3, 2
		drum_note 1, 2
Music_TitleScreen_Ch4_Bar55:
		drum_note 1, 2
		drum_note 1, 2
		drum_note 3, 1
		drum_note 1, 2
		drum_note 1, 3
		drum_note 1, 2
		drum_note 3, 2
		drum_note 1, 2
Music_TitleScreen_Ch4_Bar56:
		drum_note 1, 2
		drum_note 1, 2
		drum_note 3, 1
		drum_note 1, 2
		drum_note 1, 3
		drum_note 1, 2
		drum_note 3, 2
		drum_note 1, 2
Music_TitleScreen_Ch4_Bar57:
		drum_note 1, 2
		drum_note 1, 2
		drum_note 3, 1
		drum_note 1, 2
		drum_note 1, 3
		drum_note 1, 2
		drum_note 3, 2
		drum_note 1, 2
Music_TitleScreen_Ch4_Bar58:
		drum_note 1, 2
		drum_note 1, 2
		drum_note 3, 1
		drum_note 1, 2
		drum_note 1, 3
		drum_note 1, 2
		drum_note 3, 2
		drum_note 1, 2
Music_TitleScreen_Ch4_Bar59:
		drum_note 1, 2
		drum_note 1, 2
		drum_note 3, 1
		drum_note 1, 2
		drum_note 1, 3
		drum_note 1, 2
		drum_note 3, 2
		drum_note 1, 2
Music_TitleScreen_Ch4_Bar60:
		drum_note 1, 2
		drum_note 1, 2
		drum_note 3, 1
		drum_note 1, 2
		drum_note 1, 3
		drum_note 1, 2
		drum_note 3, 2
		drum_note 1, 2
Music_TitleScreen_Ch4_Bar61:
		drum_note 1, 2
		drum_note 1, 2
		drum_note 3, 1
		drum_note 1, 2
		drum_note 1, 3
		drum_note 1, 2
		drum_note 3, 2
		drum_note 1, 2
Music_TitleScreen_Ch4_Bar62:
		drum_note 1, 2
		drum_note 1, 2
		drum_note 3, 1
		drum_note 1, 2
		drum_note 1, 3
		drum_note 1, 2
		drum_note 3, 2
		drum_note 1, 2
Music_TitleScreen_Ch4_Bar63:
		drum_note 1, 2
		drum_note 1, 2
		drum_note 3, 1
		drum_note 1, 2
		drum_note 1, 3
		drum_note 1, 2
		drum_note 3, 2
		drum_note 1, 2
Music_TitleScreen_Ch4_Bar64:
		drum_note 1, 2
		drum_note 1, 2
		drum_note 3, 1
		drum_note 1, 2
		drum_note 1, 3
		drum_note 1, 2
		drum_note 3, 2
		drum_note 1, 2
Music_TitleScreen_Ch4_Bar65:
		drum_note 1, 2
		drum_note 1, 2
		drum_note 3, 1
		drum_note 1, 2
		drum_note 1, 3
		drum_note 1, 2
		drum_note 3, 2
		drum_note 1, 2
Music_TitleScreen_Ch4_Bar66:
		drum_note 1, 2
		drum_note 1, 2
		drum_note 3, 1
		drum_note 1, 2
		drum_note 1, 3
		drum_note 1, 2
		drum_note 3, 2
		drum_note 1, 2
Music_TitleScreen_Ch4_Bar67:
		drum_note 1, 2
		drum_note 1, 2
		drum_note 3, 1
		drum_note 1, 2
		drum_note 1, 3
		drum_note 1, 2
		drum_note 3, 2
		drum_note 1, 2
Music_TitleScreen_Ch4_Bar68:
		drum_note 1, 2
		drum_note 1, 2
		drum_note 3, 1
		drum_note 1, 2
		drum_note 1, 3
		drum_note 1, 2
		drum_note 3, 2
		drum_note 1, 2
Music_TitleScreen_Ch4_Bar69:
		drum_note 1, 2
		drum_note 1, 2
		drum_note 3, 1
		drum_note 1, 2
		drum_note 1, 3
		drum_note 1, 2
		drum_note 3, 2
		drum_note 1, 2
Music_TitleScreen_Ch4_Bar70:
		drum_note 1, 2
		drum_note 1, 2
		drum_note 3, 1
		drum_note 1, 2
		drum_note 1, 3
		drum_note 1, 2
		drum_note 3, 2
		drum_note 1, 2
Music_TitleScreen_Ch4_Bar71:
		drum_note 1, 4
		drum_note 1, 4
		drum_note 1, 4
		drum_note 1, 4
Music_TitleScreen_Ch4_Bar72:
		drum_note 1, 4
		drum_note 1, 4
		drum_note 1, 4
		drum_note 1, 4
Music_TitleScreen_Ch4_Bar73:
		drum_note 1, 2
		drum_note 1, 2
		drum_note 3, 1
		drum_note 1, 2
		drum_note 1, 3
		drum_note 1, 2
		drum_note 3, 2
		drum_note 1, 2
Music_TitleScreen_Ch4_Bar74:
		drum_note 1, 2
		drum_note 1, 2
		drum_note 3, 1
		drum_note 1, 2
		drum_note 1, 3
		drum_note 1, 2
		drum_note 3, 2
		drum_note 1, 2
Music_TitleScreen_Ch4_Bar75:
		drum_note 1, 2
		drum_note 1, 2
		drum_note 3, 1
		drum_note 1, 2
		drum_note 1, 3
		drum_note 1, 2
		drum_note 3, 2
		drum_note 1, 2
Music_TitleScreen_Ch4_Bar76:
		drum_note 1, 2
		drum_note 1, 2
		drum_note 3, 1
		drum_note 1, 2
		drum_note 1, 3
		drum_note 1, 2
		drum_note 3, 2
		drum_note 1, 2
Music_TitleScreen_Ch4_Bar77:
		drum_note 1, 2
		drum_note 1, 2
		drum_note 3, 1
		drum_note 1, 2
		drum_note 1, 3
		drum_note 1, 2
		drum_note 3, 2
		drum_note 1, 2
Music_TitleScreen_Ch4_Bar78:
		drum_note 1, 2
		drum_note 1, 2
		drum_note 3, 1
		drum_note 1, 2
		drum_note 1, 3
		drum_note 1, 2
		drum_note 3, 2
		drum_note 1, 2
Music_TitleScreen_Ch4_Bar79:
		drum_note 1, 2
		drum_note 1, 2
		drum_note 3, 1
		drum_note 1, 2
		drum_note 1, 3
		drum_note 1, 2
		drum_note 3, 2
		drum_note 1, 2
Music_TitleScreen_Ch4_Bar80:
		drum_note 1, 2
		drum_note 1, 2
		drum_note 3, 1
		drum_note 1, 2
		drum_note 1, 3
		drum_note 1, 2
		drum_note 3, 2
		sound_ret
